<?xml version="1.0" encoding="UTF-8" standalone="no"?>
<!-- Created with Inkscape (http://www.inkscape.org/) -->

<svg
   version="1.1"
   id="svg2"
   width="3186.9067"
   height="312.10532"
   viewBox="0 0 3186.9067 312.10532"
   sodipodi:docname="Dumarey-–-Logo--cmyk.ai"
   xmlns:inkscape="http://www.inkscape.org/namespaces/inkscape"
   xmlns:sodipodi="http://sodipodi.sourceforge.net/DTD/sodipodi-0.dtd"
   xmlns="http://www.w3.org/2000/svg"
   xmlns:svg="http://www.w3.org/2000/svg">
  <defs
     id="defs6">
    <clipPath
       clipPathUnits="userSpaceOnUse"
       id="clipPath28">
      <path
         d="M 0,234.079 H 2390.176 V 0 H 0 Z"
         id="path26" />
    </clipPath>
  </defs>
  <sodipodi:namedview
     id="namedview4"
     pagecolor="#ffffff"
     bordercolor="#000000"
     borderopacity="0.25"
     inkscape:showpageshadow="2"
     inkscape:pageopacity="0.0"
     inkscape:pagecheckerboard="0"
     inkscape:deskcolor="#d1d1d1" />
  <g
     id="g8"
     inkscape:groupmode="layer"
     inkscape:label="Dumarey-–-Logo--cmyk"
     transform="matrix(1.3333333,0,0,-1.3333333,0,312.10533)">
    <g
       id="g10"
       transform="translate(1218.6028,230.2182)">
      <path
         d="m 0,0 -131.846,-230.218 h 68.472 l 24.713,44.085 h 154.61 l 25.386,-44.085 h 67.623 L 79.184,0 Z M 38.651,-47.408 92.664,-142.6 h -107.43 z"
         style="fill:#009e7d;fill-opacity:1;fill-rule:nonzero;stroke:none"
         id="path12" />
    </g>
    <g
       id="g14"
       transform="translate(1791.8317,230.22)">
      <path
         d="m 0,0 v -230.22 h 247.812 v 46.544 H 59.751 v 49.298 h 177.041 v 42.536 H 59.751 v 45.298 H 245.812 V 0 Z"
         style="fill:#009e7d;fill-opacity:1;fill-rule:nonzero;stroke:none"
         id="path16" />
    </g>
    <g
       id="g18"
       transform="translate(2313.8523,230.22)">
      <path
         d="M 0,0 -85.158,-96.288 -170.96,0 h -80.496 l 134.912,-141.773 v -88.447 h 62.034 v 88.447 L 76.324,0 Z"
         style="fill:#009e7d;fill-opacity:1;fill-rule:nonzero;stroke:none"
         id="path20" />
    </g>
    <g
       id="g22">
      <g
         id="g24"
         clip-path="url(#clipPath28)">
        <g
           id="g30"
           transform="translate(581.4174,97.288)">
          <path
             d="m 0,0 c 0,-27.383 -22.28,-49.664 -49.667,-49.664 h -83.295 c -27.386,0 -49.666,22.282 -49.666,49.676 l -0.322,133.383 -58.639,0.008 V 0 c 0,-53.645 43.645,-97.288 97.291,-97.288 h 106.014 c 53.646,0 97.291,43.643 97.291,97.288 V 133.401 H -0.167 Z"
             style="fill:#009e7d;fill-opacity:1;fill-rule:nonzero;stroke:none"
             id="path32" />
        </g>
        <g
           id="g34"
           transform="translate(1513.5343,181.8635)">
          <path
             d="m 0,0 h 132.475 c 12.708,0 23.049,-10.343 23.049,-23.055 v -17.822 c 0,-12.712 -10.341,-23.055 -23.049,-23.055 L 0,-63.932 Z M 143.876,49.21 H -60.635 v -231.074 l 60.62,0.138 v 69.77 l 130.002,0.001 c 12.44,-0.475 22.187,-10.557 22.187,-22.95 v -46.619 h 63.833 v 46.619 c 0,22.062 -11.864,38.191 -34.428,46.985 22.653,8.777 34.568,24.924 34.568,47.043 v 17.822 c 0,39.847 -32.421,72.265 -72.271,72.265"
             style="fill:#009e7d;fill-opacity:1;fill-rule:nonzero;stroke:none"
             id="path36" />
        </g>
        <g
           id="g38"
           transform="translate(879.3448,69.4931)">
          <path
             d="m 0,0 -98.375,160.7 -84.514,0.027 v -230.22 h 54.286 L -129.844,101.405 -25.21,-69.493 H 19.388 L 124.526,101.405 122.69,-69.493 h 59.496 V 160.725 H 97.869 Z"
             style="fill:#009e7d;fill-opacity:1;fill-rule:nonzero;stroke:none"
             id="path40" />
        </g>
        <g
           id="g42"
           transform="translate(58.9731,186.4632)">
          <path
             d="m 0,0 125.967,-0.009 c 27.384,0 49.664,-22.28 49.664,-49.663 v -39.499 c 0,-27.386 -22.28,-49.668 -49.661,-49.668 L 0,-138.699 Z M 137.316,47.616 H -58.973 v -233.818 l 196.289,-0.261 c 53.646,0 97.291,43.645 97.291,97.292 v 39.499 c 0,53.644 -43.645,97.288 -97.291,97.288"
             style="fill:#009e7d;fill-opacity:1;fill-rule:nonzero;stroke:none"
             id="path44" />
        </g>
      </g>
    </g>
  </g>
</svg>
